<svg width="320" height="220" xmlns="http://www.w3.org/2000/svg">
<rect x="240" y="10" width="10" height="10" fill="#bb2542" fill-opacity="0.062"/>
<rect x="250" y="10" width="10" height="10" fill="#bb2542" fill-opacity="0.672"/>
<rect x="260" y="10" width="10" height="10" fill="#bb2542" fill-opacity="0.188"/>
<rect x="140" y="20" width="10" height="10" fill="#0f85a5" fill-opacity="0.109"/>
<rect x="150" y="20" width="10" height="10" fill="#0f85a5" fill-opacity="0.672"/>
<rect x="160" y="20" width="10" height="10" fill="#0f85a5" fill-opacity="0.125"/>
<rect x="230" y="20" width="10" height="10" fill="#bb2542" fill-opacity="0.297"/>
<rect x="240" y="20" width="10" height="10" fill="#bb2542" fill-opacity="0.891"/>
<rect x="250" y="20" width="10" height="10" fill="#bb2542" fill-opacity="1.000"/>
<rect x="260" y="20" width="10" height="10" fill="#bb2542" fill-opacity="0.516"/>
<rect x="130" y="30" width="10" height="10" fill="#0f85a5" fill-opacity="0.391"/>
<rect x="140" y="30" width="10" height="10" fill="#0f85a5" fill-opacity="0.938"/>
<rect x="150" y="30" width="10" height="10" fill="#0f85a5" fill-opacity="1.000"/>
<rect x="160" y="30" width="10" height="10" fill="#0f85a5" fill-opacity="0.344"/>
<rect x="210" y="30" width="10" height="10" fill="#bb2542" fill-opacity="0.047"/>
<rect x="220" y="30" width="10" height="10" fill="#bb2542" fill-opacity="0.578"/>
<rect x="230" y="30" width="10" height="10" fill="#bb2542" fill-opacity="1.000"/>
<rect x="240" y="30" width="10" height="10" fill="#bb2542" fill-opacity="1.000"/>
<rect x="250" y="30" width="10" height="10" fill="#bb2542" fill-opacity="1.000"/>
<rect x="260" y="30" width="10" height="10" fill="#bb2542" fill-opacity="0.859"/>
<rect x="110" y="40" width="10" height="10" fill="#0f85a5" fill-opacity="0.141"/>
<rect x="120" y="40" width="10" height="10" fill="#0f85a5" fill-opacity="0.750"/>
<rect x="130" y="40" width="10" height="10" fill="#0f85a5" fill-opacity="1.000"/>
<rect x="140" y="40" width="10" height="10" fill="#0f85a5" fill-opacity="1.000"/>
<rect x="150" y="40" width="10" height="10" fill="#0f85a5" fill-opacity="1.000"/>
<rect x="160" y="40" width="10" height="10" fill="#0f85a5" fill-opacity="0.594"/>
<rect x="200" y="40" width="10" height="10" fill="#bb2542" fill-opacity="0.219"/>
<rect x="210" y="40" width="10" height="10" fill="#bb2542" fill-opacity="0.875"/>
<rect x="220" y="40" width="10" height="10" fill="#bb2542" fill-opacity="1.000"/>
<rect x="230" y="40" width="10" height="10" fill="#bb2542" fill-opacity="1.000"/>
<rect x="240" y="40" width="10" height="10" fill="#bb2542" fill-opacity="1.000"/>
<rect x="250" y="40" width="10" height="10" fill="#bb2542" fill-opacity="1.000"/>
<rect x="260" y="40" width="10" height="10" fill="#bb2542" fill-opacity="1.000"/>
<rect x="270" y="40" width="10" height="10" fill="#bb2542" fill-opacity="0.188"/>
<rect x="90" y="50" width="10" height="10" fill="#0f85a5" fill-opacity="0.016"/>
<rect x="100" y="50" width="10" height="10" fill="#0f85a5" fill-opacity="0.453"/>
<rect x="110" y="50" width="10" height="10" fill="#0f85a5" fill-opacity="0.969"/>
<rect x="120" y="50" width="10" height="10" fill="#0f85a5" fill-opacity="1.000"/>
<rect x="130" y="50" width="10" height="10" fill="#0f85a5" fill-opacity="1.000"/>
<rect x="140" y="50" width="10" height="10" fill="#0f85a5" fill-opacity="1.000"/>
<rect x="150" y="50" width="10" height="10" fill="#0f85a5" fill-opacity="1.000"/>
<rect x="160" y="50" width="10" height="10" fill="#0f85a5" fill-opacity="0.812"/>
<rect x="180" y="50" width="10" height="10" fill="#bb2542" fill-opacity="0.016"/>
<rect x="190" y="50" width="10" height="10" fill="#bb2542" fill-opacity="0.547"/>
<rect x="200" y="50" width="10" height="10" fill="#bb2542" fill-opacity="0.984"/>
<rect x="210" y="50" width="10" height="10" fill="#bb2542" fill-opacity="1.000"/>
<rect x="220" y="50" width="10" height="10" fill="#bb2542" fill-opacity="1.000"/>
<rect x="230" y="50" width="10" height="10" fill="#bb2542" fill-opacity="1.000"/>
<rect x="240" y="50" width="10" height="10" fill="#bb2542" fill-opacity="1.000"/>
<rect x="250" y="50" width="10" height="10" fill="#bb2542" fill-opacity="1.000"/>
<rect x="260" y="50" width="10" height="10" fill="#bb2542" fill-opacity="1.000"/>
<rect x="270" y="50" width="10" height="10" fill="#bb2542" fill-opacity="0.516"/>
<rect x="80" y="60" width="10" height="10" fill="#0f85a5" fill-opacity="0.188"/>
<rect x="90" y="60" width="10" height="10" fill="#0f85a5" fill-opacity="0.812"/>
<rect x="100" y="60" width="10" height="10" fill="#0f85a5" fill-opacity="1.000"/>
<rect x="110" y="60" width="10" height="10" fill="#0f85a5" fill-opacity="1.000"/>
<rect x="120" y="60" width="10" height="10" fill="#0f85a5" fill-opacity="1.000"/>
<rect x="130" y="60" width="10" height="10" fill="#0f85a5" fill-opacity="1.000"/>
<rect x="140" y="60" width="10" height="10" fill="#0f85a5" fill-opacity="1.000"/>
<rect x="150" y="60" width="10" height="10" fill="#0f85a5" fill-opacity="1.000"/>
<rect x="160" y="60" width="10" height="10" fill="#0f85a5" fill-opacity="1.000"/>
<rect x="170" y="60" width="10" height="10" fill="#903d5a" fill-opacity="0.250"/>
<rect x="180" y="60" width="10" height="10" fill="#bb2542" fill-opacity="0.812"/>
<rect x="190" y="60" width="10" height="10" fill="#bb2542" fill-opacity="1.000"/>
<rect x="200" y="60" width="10" height="10" fill="#bb2542" fill-opacity="1.000"/>
<rect x="210" y="60" width="10" height="10" fill="#bb2542" fill-opacity="1.000"/>
<rect x="220" y="60" width="10" height="10" fill="#bb2542" fill-opacity="1.000"/>
<rect x="230" y="60" width="10" height="10" fill="#bb2542" fill-opacity="1.000"/>
<rect x="240" y="60" width="10" height="10" fill="#bb2542" fill-opacity="1.000"/>
<rect x="250" y="60" width="10" height="10" fill="#bb2542" fill-opacity="1.000"/>
<rect x="260" y="60" width="10" height="10" fill="#bb2542" fill-opacity="1.000"/>
<rect x="270" y="60" width="10" height="10" fill="#bb2542" fill-opacity="0.859"/>
<rect x="60" y="70" width="10" height="10" fill="#0f85a5" fill-opacity="0.031"/>
<rect x="70" y="70" width="10" height="10" fill="#0f85a5" fill-opacity="0.547"/>
<rect x="80" y="70" width="10" height="10" fill="#0f85a5" fill-opacity="0.984"/>
<rect x="90" y="70" width="10" height="10" fill="#0f85a5" fill-opacity="1.000"/>
<rect x="100" y="70" width="10" height="10" fill="#0f85a5" fill-opacity="1.000"/>
<rect x="110" y="70" width="10" height="10" fill="#0f85a5" fill-opacity="1.000"/>
<rect x="120" y="70" width="10" height="10" fill="#0f85a5" fill-opacity="1.000"/>
<rect x="130" y="70" width="10" height="10" fill="#0f85a5" fill-opacity="1.000"/>
<rect x="140" y="70" width="10" height="10" fill="#0f85a5" fill-opacity="1.000"/>
<rect x="150" y="70" width="10" height="10" fill="#1183a3" fill-opacity="1.000"/>
<rect x="160" y="70" width="10" height="10" fill="#5c5978" fill-opacity="1.000"/>
<rect x="170" y="70" width="10" height="10" fill="#b82643" fill-opacity="1.000"/>
<rect x="180" y="70" width="10" height="10" fill="#bb2542" fill-opacity="1.000"/>
<rect x="190" y="70" width="10" height="10" fill="#bb2542" fill-opacity="1.000"/>
<rect x="200" y="70" width="10" height="10" fill="#bb2542" fill-opacity="1.000"/>
<rect x="210" y="70" width="10" height="10" fill="#bb2542" fill-opacity="1.000"/>
<rect x="220" y="70" width="10" height="10" fill="#bb2542" fill-opacity="1.000"/>
<rect x="230" y="70" width="10" height="10" fill="#bb2542" fill-opacity="1.000"/>
<rect x="240" y="70" width="10" height="10" fill="#bb2542" fill-opacity="1.000"/>
<rect x="250" y="70" width="10" height="10" fill="#bb2542" fill-opacity="1.000"/>
<rect x="260" y="70" width="10" height="10" fill="#bb2542" fill-opacity="1.000"/>
<rect x="270" y="70" width="10" height="10" fill="#bb2542" fill-opacity="1.000"/>
<rect x="280" y="70" width="10" height="10" fill="#bb2542" fill-opacity="0.188"/>
<rect x="50" y="80" width="10" height="10" fill="#0f85a5" fill-opacity="0.250"/>
<rect x="60" y="80" width="10" height="10" fill="#0f85a5" fill-opacity="0.859"/>
<rect x="70" y="80" width="10" height="10" fill="#0f85a5" fill-opacity="1.000"/>
<rect x="80" y="80" width="10" height="10" fill="#0f85a5" fill-opacity="1.000"/>
<rect x="90" y="80" width="10" height="10" fill="#0f85a5" fill-opacity="1.000"/>
<rect x="100" y="80" width="10" height="10" fill="#0f85a5" fill-opacity="1.000"/>
<rect x="110" y="80" width="10" height="10" fill="#0f85a5" fill-opacity="1.000"/>
<rect x="120" y="80" width="10" height="10" fill="#0f85a5" fill-opacity="1.000"/>
<rect x="130" y="80" width="10" height="10" fill="#0f85a5" fill-opacity="1.000"/>
<rect x="140" y="80" width="10" height="10" fill="#247998" fill-opacity="1.000"/>
<rect x="150" y="80" width="10" height="10" fill="#953a57" fill-opacity="1.000"/>
<rect x="160" y="80" width="10" height="10" fill="#bb2542" fill-opacity="1.000"/>
<rect x="170" y="80" width="10" height="10" fill="#bb2542" fill-opacity="1.000"/>
<rect x="180" y="80" width="10" height="10" fill="#bb2542" fill-opacity="1.000"/>
<rect x="190" y="80" width="10" height="10" fill="#bb2542" fill-opacity="1.000"/>
<rect x="200" y="80" width="10" height="10" fill="#bb2542" fill-opacity="1.000"/>
<rect x="210" y="80" width="10" height="10" fill="#bb2542" fill-opacity="1.000"/>
<rect x="220" y="80" width="10" height="10" fill="#bb2542" fill-opacity="1.000"/>
<rect x="230" y="80" width="10" height="10" fill="#bb2542" fill-opacity="1.000"/>
<rect x="240" y="80" width="10" height="10" fill="#bb2542" fill-opacity="1.000"/>
<rect x="250" y="80" width="10" height="10" fill="#bb2542" fill-opacity="1.000"/>
<rect x="260" y="80" width="10" height="10" fill="#bb2542" fill-opacity="1.000"/>
<rect x="270" y="80" width="10" height="10" fill="#bb2542" fill-opacity="1.000"/>
<rect x="280" y="80" width="10" height="10" fill="#bb2542" fill-opacity="0.516"/>
<rect x="30" y="90" width="10" height="10" fill="#0f85a5" fill-opacity="0.062"/>
<rect x="40" y="90" width="10" height="10" fill="#0f85a5" fill-opacity="0.609"/>
<rect x="50" y="90" width="10" height="10" fill="#0f85a5" fill-opacity="1.000"/>
<rect x="60" y="90" width="10" height="10" fill="#0f85a5" fill-opacity="1.000"/>
<rect x="70" y="90" width="10" height="10" fill="#0f85a5" fill-opacity="1.000"/>
<rect x="80" y="90" width="10" height="10" fill="#0f85a5" fill-opacity="1.000"/>
<rect x="90" y="90" width="10" height="10" fill="#0f85a5" fill-opacity="1.000"/>
<rect x="100" y="90" width="10" height="10" fill="#0f85a5" fill-opacity="1.000"/>
<rect x="110" y="90" width="10" height="10" fill="#0f85a5" fill-opacity="1.000"/>
<rect x="120" y="90" width="10" height="10" fill="#0f85a5" fill-opacity="1.000"/>
<rect x="130" y="90" width="10" height="10" fill="#575c7b" fill-opacity="1.000"/>
<rect x="140" y="90" width="10" height="10" fill="#b22946" fill-opacity="1.000"/>
<rect x="150" y="90" width="10" height="10" fill="#bb2542" fill-opacity="1.000"/>
<rect x="160" y="90" width="10" height="10" fill="#bb2542" fill-opacity="1.000"/>
<rect x="170" y="90" width="10" height="10" fill="#bb2542" fill-opacity="1.000"/>
<rect x="180" y="90" width="10" height="10" fill="#bb2542" fill-opacity="1.000"/>
<rect x="190" y="90" width="10" height="10" fill="#bb2542" fill-opacity="1.000"/>
<rect x="200" y="90" width="10" height="10" fill="#bb2542" fill-opacity="1.000"/>
<rect x="210" y="90" width="10" height="10" fill="#bb2542" fill-opacity="1.000"/>
<rect x="220" y="90" width="10" height="10" fill="#bb2542" fill-opacity="1.000"/>
<rect x="230" y="90" width="10" height="10" fill="#bb2542" fill-opacity="1.000"/>
<rect x="240" y="90" width="10" height="10" fill="#bb2542" fill-opacity="1.000"/>
<rect x="250" y="90" width="10" height="10" fill="#bb2542" fill-opacity="1.000"/>
<rect x="260" y="90" width="10" height="10" fill="#bb2542" fill-opacity="1.000"/>
<rect x="270" y="90" width="10" height="10" fill="#bb2542" fill-opacity="1.000"/>
<rect x="280" y="90" width="10" height="10" fill="#bb2542" fill-opacity="0.859"/>
<rect x="20" y="100" width="10" height="10" fill="#0f85a5" fill-opacity="0.328"/>
<rect x="30" y="100" width="10" height="10" fill="#0f85a5" fill-opacity="0.891"/>
<rect x="40" y="100" width="10" height="10" fill="#0f85a5" fill-opacity="1.000"/>
<rect x="50" y="100" width="10" height="10" fill="#0f85a5" fill-opacity="1.000"/>
<rect x="60" y="100" width="10" height="10" fill="#0f85a5" fill-opacity="1.000"/>
<rect x="70" y="100" width="10" height="10" fill="#0f85a5" fill-opacity="1.000"/>
<rect x="80" y="100" width="10" height="10" fill="#0f85a5" fill-opacity="1.000"/>
<rect x="90" y="100" width="10" height="10" fill="#0f85a5" fill-opacity="1.000"/>
<rect x="100" y="100" width="10" height="10" fill="#0f85a5" fill-opacity="1.000"/>
<rect x="110" y="100" width="10" height="10" fill="#217a9a" fill-opacity="1.000"/>
<rect x="120" y="100" width="10" height="10" fill="#87415f" fill-opacity="1.000"/>
<rect x="130" y="100" width="10" height="10" fill="#bb2542" fill-opacity="1.000"/>
<rect x="140" y="100" width="10" height="10" fill="#bb2542" fill-opacity="1.000"/>
<rect x="150" y="100" width="10" height="10" fill="#bb2542" fill-opacity="1.000"/>
<rect x="160" y="100" width="10" height="10" fill="#bb2542" fill-opacity="1.000"/>
<rect x="170" y="100" width="10" height="10" fill="#bb2542" fill-opacity="1.000"/>
<rect x="180" y="100" width="10" height="10" fill="#bb2542" fill-opacity="1.000"/>
<rect x="190" y="100" width="10" height="10" fill="#bb2542" fill-opacity="1.000"/>
<rect x="200" y="100" width="10" height="10" fill="#bb2542" fill-opacity="1.000"/>
<rect x="210" y="100" width="10" height="10" fill="#bb2542" fill-opacity="1.000"/>
<rect x="220" y="100" width="10" height="10" fill="#bb2542" fill-opacity="1.000"/>
<rect x="230" y="100" width="10" height="10" fill="#bb2542" fill-opacity="1.000"/>
<rect x="240" y="100" width="10" height="10" fill="#bb2542" fill-opacity="1.000"/>
<rect x="250" y="100" width="10" height="10" fill="#bb2542" fill-opacity="1.000"/>
<rect x="260" y="100" width="10" height="10" fill="#bb2542" fill-opacity="1.000"/>
<rect x="270" y="100" width="10" height="10" fill="#bb2542" fill-opacity="1.000"/>
<rect x="280" y="100" width="10" height="10" fill="#bb2542" fill-opacity="1.000"/>
<rect x="290" y="100" width="10" height="10" fill="#bb2542" fill-opacity="0.188"/>
<rect x="20" y="110" width="10" height="10" fill="#0f85a5" fill-opacity="0.219"/>
<rect x="30" y="110" width="10" height="10" fill="#0f85a5" fill-opacity="0.672"/>
<rect x="40" y="110" width="10" height="10" fill="#0f85a5" fill-opacity="0.984"/>
<rect x="50" y="110" width="10" height="10" fill="#0f85a5" fill-opacity="1.000"/>
<rect x="60" y="110" width="10" height="10" fill="#0f85a5" fill-opacity="1.000"/>
<rect x="70" y="110" width="10" height="10" fill="#0f85a5" fill-opacity="1.000"/>
<rect x="80" y="110" width="10" height="10" fill="#0f85a5" fill-opacity="1.000"/>
<rect x="90" y="110" width="10" height="10" fill="#0f85a5" fill-opacity="1.000"/>
<rect x="100" y="110" width="10" height="10" fill="#476584" fill-opacity="1.000"/>
<rect x="110" y="110" width="10" height="10" fill="#b02b48" fill-opacity="1.000"/>
<rect x="120" y="110" width="10" height="10" fill="#bb2542" fill-opacity="1.000"/>
<rect x="130" y="110" width="10" height="10" fill="#bb2542" fill-opacity="1.000"/>
<rect x="140" y="110" width="10" height="10" fill="#bb2542" fill-opacity="1.000"/>
<rect x="150" y="110" width="10" height="10" fill="#bb2542" fill-opacity="1.000"/>
<rect x="160" y="110" width="10" height="10" fill="#bb2542" fill-opacity="1.000"/>
<rect x="170" y="110" width="10" height="10" fill="#bb2542" fill-opacity="1.000"/>
<rect x="180" y="110" width="10" height="10" fill="#bb2542" fill-opacity="1.000"/>
<rect x="190" y="110" width="10" height="10" fill="#bb2542" fill-opacity="1.000"/>
<rect x="200" y="110" width="10" height="10" fill="#bb2542" fill-opacity="1.000"/>
<rect x="210" y="110" width="10" height="10" fill="#bb2542" fill-opacity="1.000"/>
<rect x="220" y="110" width="10" height="10" fill="#bb2542" fill-opacity="1.000"/>
<rect x="230" y="110" width="10" height="10" fill="#bb2542" fill-opacity="1.000"/>
<rect x="240" y="110" width="10" height="10" fill="#bb2542" fill-opacity="1.000"/>
<rect x="250" y="110" width="10" height="10" fill="#bb2542" fill-opacity="1.000"/>
<rect x="260" y="110" width="10" height="10" fill="#bb2542" fill-opacity="1.000"/>
<rect x="270" y="110" width="10" height="10" fill="#bb2542" fill-opacity="1.000"/>
<rect x="280" y="110" width="10" height="10" fill="#bb2542" fill-opacity="1.000"/>
<rect x="290" y="110" width="10" height="10" fill="#bb2542" fill-opacity="0.516"/>
<rect x="40" y="120" width="10" height="10" fill="#0f85a5" fill-opacity="0.125"/>
<rect x="50" y="120" width="10" height="10" fill="#0f85a5" fill-opacity="0.562"/>
<rect x="60" y="120" width="10" height="10" fill="#0f85a5" fill-opacity="0.938"/>
<rect x="70" y="120" width="10" height="10" fill="#0f85a5" fill-opacity="1.000"/>
<rect x="80" y="120" width="10" height="10" fill="#0f85a5" fill-opacity="1.000"/>
<rect x="90" y="120" width="10" height="10" fill="#0f85a5" fill-opacity="1.000"/>
<rect x="100" y="120" width="10" height="10" fill="#1c7d9d" fill-opacity="1.000"/>
<rect x="110" y="120" width="10" height="10" fill="#426887" fill-opacity="1.000"/>
<rect x="120" y="120" width="10" height="10" fill="#5f5876" fill-opacity="1.000"/>
<rect x="130" y="120" width="10" height="10" fill="#824462" fill-opacity="1.000"/>
<rect x="140" y="120" width="10" height="10" fill="#a2324f" fill-opacity="1.000"/>
<rect x="150" y="120" width="10" height="10" fill="#bb2542" fill-opacity="1.000"/>
<rect x="160" y="120" width="10" height="10" fill="#bb2542" fill-opacity="1.000"/>
<rect x="170" y="120" width="10" height="10" fill="#bb2542" fill-opacity="1.000"/>
<rect x="180" y="120" width="10" height="10" fill="#bb2542" fill-opacity="1.000"/>
<rect x="190" y="120" width="10" height="10" fill="#bb2542" fill-opacity="1.000"/>
<rect x="200" y="120" width="10" height="10" fill="#bb2542" fill-opacity="1.000"/>
<rect x="210" y="120" width="10" height="10" fill="#bb2542" fill-opacity="1.000"/>
<rect x="220" y="120" width="10" height="10" fill="#bb2542" fill-opacity="1.000"/>
<rect x="230" y="120" width="10" height="10" fill="#bb2542" fill-opacity="1.000"/>
<rect x="240" y="120" width="10" height="10" fill="#bb2542" fill-opacity="1.000"/>
<rect x="250" y="120" width="10" height="10" fill="#bb2542" fill-opacity="1.000"/>
<rect x="260" y="120" width="10" height="10" fill="#bb2542" fill-opacity="1.000"/>
<rect x="270" y="120" width="10" height="10" fill="#bb2542" fill-opacity="1.000"/>
<rect x="280" y="120" width="10" height="10" fill="#bb2542" fill-opacity="1.000"/>
<rect x="290" y="120" width="10" height="10" fill="#bb2542" fill-opacity="0.859"/>
<rect x="60" y="130" width="10" height="10" fill="#0f85a5" fill-opacity="0.062"/>
<rect x="70" y="130" width="10" height="10" fill="#0f85a5" fill-opacity="0.438"/>
<rect x="80" y="130" width="10" height="10" fill="#0f85a5" fill-opacity="0.875"/>
<rect x="90" y="130" width="10" height="10" fill="#0f85a5" fill-opacity="1.000"/>
<rect x="100" y="130" width="10" height="10" fill="#0f85a5" fill-opacity="1.000"/>
<rect x="110" y="130" width="10" height="10" fill="#0f85a5" fill-opacity="1.000"/>
<rect x="120" y="130" width="10" height="10" fill="#0f85a5" fill-opacity="1.000"/>
<rect x="130" y="130" width="10" height="10" fill="#0f85a5" fill-opacity="1.000"/>
<rect x="140" y="130" width="10" height="10" fill="#0f85a5" fill-opacity="1.000"/>
<rect x="150" y="130" width="10" height="10" fill="#1780a0" fill-opacity="1.000"/>
<rect x="160" y="130" width="10" height="10" fill="#376e8d" fill-opacity="1.000"/>
<rect x="170" y="130" width="10" height="10" fill="#5a5b79" fill-opacity="1.000"/>
<rect x="180" y="130" width="10" height="10" fill="#804563" fill-opacity="0.922"/>
<rect x="190" y="130" width="10" height="10" fill="#bb2542" fill-opacity="0.812"/>
<rect x="200" y="130" width="10" height="10" fill="#bb2542" fill-opacity="0.984"/>
<rect x="210" y="130" width="10" height="10" fill="#bb2542" fill-opacity="1.000"/>
<rect x="220" y="130" width="10" height="10" fill="#bb2542" fill-opacity="1.000"/>
<rect x="230" y="130" width="10" height="10" fill="#bb2542" fill-opacity="1.000"/>
<rect x="240" y="130" width="10" height="10" fill="#bb2542" fill-opacity="1.000"/>
<rect x="250" y="130" width="10" height="10" fill="#bb2542" fill-opacity="1.000"/>
<rect x="260" y="130" width="10" height="10" fill="#bb2542" fill-opacity="1.000"/>
<rect x="270" y="130" width="10" height="10" fill="#bb2542" fill-opacity="1.000"/>
<rect x="280" y="130" width="10" height="10" fill="#bb2542" fill-opacity="1.000"/>
<rect x="290" y="130" width="10" height="10" fill="#bb2542" fill-opacity="1.000"/>
<rect x="300" y="130" width="10" height="10" fill="#bb2542" fill-opacity="0.188"/>
<rect x="80" y="140" width="10" height="10" fill="#0f85a5" fill-opacity="0.016"/>
<rect x="90" y="140" width="10" height="10" fill="#0f85a5" fill-opacity="0.328"/>
<rect x="100" y="140" width="10" height="10" fill="#0f85a5" fill-opacity="0.781"/>
<rect x="110" y="140" width="10" height="10" fill="#0f85a5" fill-opacity="1.000"/>
<rect x="120" y="140" width="10" height="10" fill="#0f85a5" fill-opacity="1.000"/>
<rect x="130" y="140" width="10" height="10" fill="#0f85a5" fill-opacity="1.000"/>
<rect x="140" y="140" width="10" height="10" fill="#0f85a5" fill-opacity="1.000"/>
<rect x="150" y="140" width="10" height="10" fill="#0f85a5" fill-opacity="1.000"/>
<rect x="160" y="140" width="10" height="10" fill="#0f85a5" fill-opacity="1.000"/>
<rect x="170" y="140" width="10" height="10" fill="#0f85a5" fill-opacity="1.000"/>
<rect x="180" y="140" width="10" height="10" fill="#0f85a5" fill-opacity="0.938"/>
<rect x="200" y="140" width="10" height="10" fill="#bb2542" fill-opacity="0.016"/>
<rect x="210" y="140" width="10" height="10" fill="#bb2542" fill-opacity="0.188"/>
<rect x="220" y="140" width="10" height="10" fill="#bb2542" fill-opacity="0.391"/>
<rect x="230" y="140" width="10" height="10" fill="#bb2542" fill-opacity="0.562"/>
<rect x="240" y="140" width="10" height="10" fill="#bb2542" fill-opacity="0.766"/>
<rect x="250" y="140" width="10" height="10" fill="#bb2542" fill-opacity="0.953"/>
<rect x="260" y="140" width="10" height="10" fill="#bb2542" fill-opacity="1.000"/>
<rect x="270" y="140" width="10" height="10" fill="#bb2542" fill-opacity="1.000"/>
<rect x="280" y="140" width="10" height="10" fill="#bb2542" fill-opacity="1.000"/>
<rect x="290" y="140" width="10" height="10" fill="#bb2542" fill-opacity="1.000"/>
<rect x="300" y="140" width="10" height="10" fill="#bb2542" fill-opacity="0.516"/>
<rect x="110" y="150" width="10" height="10" fill="#0f85a5" fill-opacity="0.219"/>
<rect x="120" y="150" width="10" height="10" fill="#0f85a5" fill-opacity="0.672"/>
<rect x="130" y="150" width="10" height="10" fill="#0f85a5" fill-opacity="0.984"/>
<rect x="140" y="150" width="10" height="10" fill="#0f85a5" fill-opacity="1.000"/>
<rect x="150" y="150" width="10" height="10" fill="#0f85a5" fill-opacity="1.000"/>
<rect x="160" y="150" width="10" height="10" fill="#0f85a5" fill-opacity="1.000"/>
<rect x="170" y="150" width="10" height="10" fill="#0f85a5" fill-opacity="1.000"/>
<rect x="180" y="150" width="10" height="10" fill="#0f85a5" fill-opacity="1.000"/>
<rect x="190" y="150" width="10" height="10" fill="#0f85a5" fill-opacity="0.188"/>
<rect x="260" y="150" width="10" height="10" fill="#bb2542" fill-opacity="0.141"/>
<rect x="270" y="150" width="10" height="10" fill="#bb2542" fill-opacity="0.328"/>
<rect x="280" y="150" width="10" height="10" fill="#bb2542" fill-opacity="0.531"/>
<rect x="290" y="150" width="10" height="10" fill="#bb2542" fill-opacity="0.703"/>
<rect x="300" y="150" width="10" height="10" fill="#bb2542" fill-opacity="0.781"/>
<rect x="130" y="160" width="10" height="10" fill="#0f85a5" fill-opacity="0.125"/>
<rect x="140" y="160" width="10" height="10" fill="#0f85a5" fill-opacity="0.562"/>
<rect x="150" y="160" width="10" height="10" fill="#0f85a5" fill-opacity="0.938"/>
<rect x="160" y="160" width="10" height="10" fill="#0f85a5" fill-opacity="1.000"/>
<rect x="170" y="160" width="10" height="10" fill="#0f85a5" fill-opacity="1.000"/>
<rect x="180" y="160" width="10" height="10" fill="#0f85a5" fill-opacity="1.000"/>
<rect x="190" y="160" width="10" height="10" fill="#0f85a5" fill-opacity="0.406"/>
<rect x="150" y="170" width="10" height="10" fill="#0f85a5" fill-opacity="0.062"/>
<rect x="160" y="170" width="10" height="10" fill="#0f85a5" fill-opacity="0.438"/>
<rect x="170" y="170" width="10" height="10" fill="#0f85a5" fill-opacity="0.875"/>
<rect x="180" y="170" width="10" height="10" fill="#0f85a5" fill-opacity="1.000"/>
<rect x="190" y="170" width="10" height="10" fill="#0f85a5" fill-opacity="0.656"/>
<rect x="170" y="180" width="10" height="10" fill="#0f85a5" fill-opacity="0.016"/>
<rect x="180" y="180" width="10" height="10" fill="#0f85a5" fill-opacity="0.328"/>
<rect x="190" y="180" width="10" height="10" fill="#0f85a5" fill-opacity="0.656"/>
</svg>